# xmcd CD database file
#
# Track frame offsets:
#	150
#	21183
#	40664
#	58934
#	74290
#	93644
#	106783
#	127391
#	141689
#	156378
#
# Disc length: 2291 seconds
#
# Revision: 0
# Processed by: cddbd v1.5.2PL0 Copyright (c) Steve Scherf et al.
# Submitted via: CDex 1.51
#
DISCID=9908f10a
DTITLE=ניקולס - ניקולס בליווי להקתו הפופולרים
DYEAR=1986
DGENRE=מזרחי
TTITLE0=ילדי עולם
TTITLE1=מזוג כוסית
TTITLE2=סירטקי
TTITLE3=עוד כוס של ערק
TTITLE4=יום יבוא אלי
TTITLE5=שציקת סלוניקי
TTITLE6=עיניים שלי
TTITLE7=מוכר הפרחים
TTITLE8=לא ידוע
TTITLE9=לא ידוע 2
EXTD=YEAR: 1986
EXTT0=
EXTT1=
EXTT2=
EXTT3=
EXTT4=
EXTT5=
EXTT6=
EXTT7=
EXTT8=
EXTT9=
PLAYORDER=
